HIERARCHY
ROOT Hips
{
 OFFSET 0.000000 0.000000 0.000000
 CHANNELS 6 Xposition Yposition Zposition Yrotation Xrotation Zrotation
 JOINT Chest
 {
  OFFSET 0.000000 9.585900 0.002600
  CHANNELS 3 Yrotation Xrotation Zrotation
  JOINT Chest2
  {
   OFFSET 0.000000 9.601200 -0.005300
   CHANNELS 3 Yrotation Xrotation Zrotation
   JOINT Chest3
   {
    OFFSET 0.000000 9.561800 0.000000
    CHANNELS 3 Yrotation Xrotation Zrotation
    JOINT Chest4
    {
     OFFSET 0.000000 9.552100 0.000000
     CHANNELS 3 Yrotation Xrotation Zrotation
     JOINT Neck
     {
      OFFSET 0.000000 14.453000 0.000000
      CHANNELS 3 Yrotation Xrotation Zrotation
      JOINT Head
      {
       OFFSET 0.000000 8.936500 -0.011300
       CHANNELS 3 Yrotation Xrotation Zrotation
       End Site
       {
        OFFSET 0.000000 17.073600 -0.006000
       }
      }
     }
     JOINT RightCollar
     {
      OFFSET -2.921100 9.558500 0.000000
      CHANNELS 3 Yrotation Xrotation Zrotation
      JOINT RightShoulder
      {
       OFFSET -13.519700 0.000000 0.000000
       CHANNELS 3 Yrotation Xrotation Zrotation
       JOINT RightElbow
       {
        OFFSET 0.000000 -29.696600 0.000000
        CHANNELS 3 Yrotation Xrotation Zrotation
        JOINT RightWrist
        {
         OFFSET 0.000000 -24.004700 0.000000
         CHANNELS 3 Yrotation Xrotation Zrotation
         End Site
         {
          OFFSET 0.000000 -17.728500 0.000000
         }
        }
       }
      }
     }
     JOINT LeftCollar
     {
      OFFSET 2.921100 9.558500 0.000000
      CHANNELS 3 Yrotation Xrotation Zrotation
      JOINT LeftShoulder
      {
       OFFSET 13.519700 0.000000 0.000000
       CHANNELS 3 Yrotation Xrotation Zrotation
       JOINT LeftElbow
       {
        OFFSET 0.000000 -29.696600 0.000000
        CHANNELS 3 Yrotation Xrotation Zrotation
        JOINT LeftWrist
        {
         OFFSET 0.000000 -24.004700 0.000000
         CHANNELS 3 Yrotation Xrotation Zrotation
         End Site
         {
          OFFSET 0.000000 -17.728500 0.000000
         }
        }
       }
      }
     }
    }
   }
  }
 }
 JOINT RightHip
 {
  OFFSET -7.771700 -0.012900 -0.001300
  CHANNELS 3 Yrotation Xrotation Zrotation
  JOINT RightKnee
  {
   OFFSET 0.000000 -40.869800 0.001200
   CHANNELS 3 Yrotation Xrotation Zrotation
   JOINT RightAnkle
   {
    OFFSET 0.000000 -39.717900 0.002100
    CHANNELS 3 Yrotation Xrotation Zrotation
    JOINT RightToe
    {
     OFFSET 0.000000 -4.965400 11.033500
     CHANNELS 3 Yrotation Xrotation Zrotation
     End Site
     {
      OFFSET 0.000000 -1.423100 5.872300
     }
    }
   }
  }
 }
 JOINT LeftHip
 {
  OFFSET 7.771700 -0.012900 -0.001300
  CHANNELS 3 Yrotation Xrotation Zrotation
  JOINT LeftKnee
  {
   OFFSET 0.000000 -40.869800 0.001200
   CHANNELS 3 Yrotation Xrotation Zrotation
   JOINT LeftAnkle
   {
    OFFSET 0.000000 -39.717900 0.002100
    CHANNELS 3 Yrotation Xrotation Zrotation
    JOINT LeftToe
    {
     OFFSET 0.000000 -4.965400 11.033500
     CHANNELS 3 Yrotation Xrotation Zrotation
     End Site
     {
      OFFSET 0.000000 -1.423100 5.872300
     }
    }
   }
  }
 }
}
MOTION
Frames: 8
Frame Time: 0.008333
0.000000 85.388000 0.000000 0.000000 -5.767877 0.000000 0.000000 11.653817 0.000000 0.000000 -5.885947 0.000000 0.000000 -0.000000 0.000000 0.000000 -0.000000 0.000000 0.000000 12.528835 0.000000 0.000000 0.711642 0.000000 0.000000 -0.000000 0.000000 0.000000 0.000000 -90.000000 0.000000 -2.309062 0.000000 0.000000 2.309062 0.000000 0.000000 -0.000000 0.000000 0.000000 -0.000000 90.000000 0.000000 -2.309062 0.000000 0.000000 2.309062 0.000000 0.000000 8.520406 0.000000 0.000000 1.905762 0.000000 -0.000000 -4.658285 0.000000 0.000000 -0.000000 0.000000 0.000000 8.520406 0.000000 0.000000 1.905762 0.000000 -0.000000 -4.658285 0.000000 0.000000 -0.000000 0.000000
-18.127217 57.877779 31.050604 167.284387 -42.510820 -0.527812 5.627435 23.031106 4.331362 0.748077 3.570387 0.379705 1.216146 5.737980 0.634229 4.564304 19.551524 2.766054 -1.277184 16.182067 -1.304536 -1.909993 -5.750019 -1.970651 2.210059 1.235063 0.000034 42.485085 -46.798281 -26.087768 34.464742 -3.616186 -1.292860 5.142610 -9.975832 -49.867617 -9.911874 -3.407847 -0.875086 -34.278384 -41.694661 17.314501 -39.142084 -8.155630 6.404722 -16.272109 -0.844462 32.967979 12.696938 -32.598958 5.385584 -9.099087 68.629570 -5.401324 -0.657130 13.935953 0.388420 -0.323758 -8.749375 3.690100 -6.034723 -34.502223 2.741002 30.141414 72.621793 25.938335 -17.208965 15.872953 -0.064561 -0.270879 -9.318995 -1.546839
-18.135269 57.872402 31.060771 167.296036 -42.507891 -0.492460 5.614660 22.904378 4.334177 0.743053 3.535417 0.385953 1.208838 5.684820 0.644298 4.564879 19.469800 2.811207 -1.269556 16.324957 -1.388127 -1.867185 -5.484903 -2.129191 2.081134 1.399601 0.129242 42.582652 -46.668441 -26.310980 34.631000 -3.770535 -1.217817 5.094609 -10.026703 -49.826636 -9.776752 -3.361811 -0.833135 -34.498593 -41.633749 17.150756 -39.288272 -7.870018 6.341886 -16.107353 -0.948622 33.022408 12.787251 -32.619767 5.352740 -9.133604 68.639905 -5.461805 -0.699826 13.967252 0.442186 -0.294555 -8.773836 3.699332 -6.062053 -34.506342 2.741202 30.094734 72.609108 25.806892 -17.190004 15.918192 -0.012731 -0.269233 -9.323176 -1.563028
-18.147190 57.867494 31.069075 167.310742 -42.519095 -0.431998 5.573125 22.804726 4.307945 0.734990 3.501945 0.392484 1.196531 5.634005 0.654786 4.547548 19.393300 2.855821 -1.245705 16.479082 -1.482122 -1.791175 -5.198713 -2.312503 1.989015 1.530598 0.249931 42.465500 -46.545195 -26.373116 34.885856 -3.994975 -1.174139 5.082612 -10.094948 -49.793548 -9.591499 -3.340228 -0.793055 -34.650670 -41.564512 16.909678 -39.526379 -7.613522 6.308885 -15.955906 -1.062320 33.096359 12.830932 -32.644684 5.303554 -9.142589 68.704634 -5.542643 -0.666911 14.018777 0.490102 -0.344948 -8.842167 3.737613 -6.058171 -34.501609 2.696221 30.055426 72.597360 25.697970 -17.187242 15.963151 0.045544 -0.273757 -9.331817 -1.588175
-18.158718 57.863646 31.074975 167.341105 -42.548620 -0.380336 5.507466 22.734687 4.280574 0.724811 3.471213 0.398907 1.180718 5.587455 0.665044 4.516182 19.324517 2.897707 -1.209305 16.640703 -1.581160 -1.690731 -4.898329 -2.509252 1.924932 1.626906 0.368306 42.150293 -46.439224 -26.272934 35.228751 -4.272952 -1.175622 5.098334 -10.181984 -49.758317 -9.366016 -3.349004 -0.749230 -34.757929 -41.478060 16.611396 -39.839731 -7.399312 6.306651 -15.817587 -1.172057 33.181858 12.846067 -32.625210 5.249985 -9.101458 68.747994 -5.561786 -0.647015 14.016221 0.542337 -0.351879 -8.859518 3.740630 -6.046617 -34.481781 2.629191 30.033245 72.592996 25.640303 -17.227333 15.960802 0.059614 -0.242756 -9.309610 -1.596281
-18.151002 57.866471 31.075837 167.485422 -42.643735 -0.512862 5.403326 22.726959 4.374163 0.714195 3.442179 0.404912 1.164203 5.543385 0.674550 4.480703 19.259683 2.936593 -1.168662 16.808235 -1.676394 -1.584450 -4.586669 -2.699896 1.863711 1.700744 0.496768 41.668134 -46.352848 -26.028187 35.635815 -4.583902 -1.218480 5.135439 -10.301937 -49.728357 -9.119659 -3.373451 -0.687997 -34.849649 -41.378866 16.280758 -40.203731 -7.229721 6.326003 -15.687028 -1.275729 33.280410 12.686008 -32.465518 5.390311 -9.124944 68.662930 -5.687813 -0.600873 13.888626 0.623745 -0.396841 -8.725970 3.736263 -6.173587 -34.386833 2.668727 30.029122 72.586963 25.614344 -17.194465 15.973226 0.127009 -0.287852 -9.306595 -1.637361
-18.157778 57.858000 31.083249 167.539402 -42.647476 -0.512888 5.332272 22.637537 4.375407 0.703741 3.413140 0.409937 1.147906 5.499231 0.682445 4.445069 19.194747 2.970438 -1.128065 16.981174 -1.761149 -1.482516 -4.264721 -2.870521 1.793250 1.759913 0.642101 41.064095 -46.279544 -25.670264 36.064658 -4.914066 -1.281653 5.196249 -10.465121 -49.717615 -8.852914 -3.394668 -0.601329 -34.945057 -41.274775 15.941743 -40.600751 -7.103672 6.359205 -15.561363 -1.381796 33.392682 12.629916 -32.463221 5.433819 -9.205281 68.663598 -5.874363 -0.625258 13.892639 0.659565 -0.372284 -8.725885 3.755124 -6.196868 -34.391807 2.651278 30.076094 72.566627 25.598685 -17.182034 16.012499 0.198177 -0.305878 -9.313127 -1.658940
-18.155245 57.850271 31.089185 167.581599 -42.663043 -0.565884 5.303369 22.603224 4.421263 0.685883 3.335437 0.430615 1.131517 5.455331 0.688677 4.407959 19.130359 2.998554 -1.088314 17.157884 -1.834635 -1.386527 -3.935631 -3.019605 1.721022 1.804692 0.793639 40.375694 -46.217563 -25.231854 36.490396 -5.258048 -1.344889 5.278450 -10.660636 -49.724826 -8.555255 -3.408329 -0.497258 -35.037344 -41.171750 15.603102 -41.034537 -7.023945 6.401501 -15.435292 -1.495068 33.511473 12.551679 -32.459229 5.535879 -9.298663 68.658422 -6.047274 -0.623973 13.899319 0.694002 -0.367825 -8.726477 3.764171 -6.202290 -34.390812 2.675161 30.025559 72.583589 25.570465 -17.203226 16.014741 0.204035 -0.300961 -9.315816 -1.658488
